<svg xmlns="http://www.w3.org/2000/svg" width="200" height="200" viewBox="0 0 200 200"><path d="M102.226 30.098c7.369-.256 14.865.012 22.244-.098 2.552-.039 5.238-.02 7.782.133q.114.075.227.155c2.633 1.852 6.997 6.553 7.369 9.828.277 2.444.157 7.085.157 9.69v19.877l-.007 40.248c-.001 7.03.018 14.082-.036 21.112-.007.892.002 1.575-.523 2.314l-1.009-.484c-1.151-1.395.039-79.649-.371-90.492-.189-5.001-3.049-7.19-6.466-10.357-3.732-.267-28.392.505-29.562-.566-.194-.793-.172-.512.195-1.36"/><path d="M143.072 31.467c2.376 3.38 1.895 9.016 1.918 13.019.027 4.707-.013 9.442-.018 14.153l-.011 40.252.028 23.056c.003 2.016.428 9.746-.698 11.001l-.61.081c-.778-.772-.679-3.159-.684-4.254l.039-63.83.011-18.458c.004-3.303.073-6.794-.111-10.093-.057-1.007-.924-2.64-1.397-3.603.706-1.082.336-.746 1.533-1.324"/><path d="M53.291 66.886c.72.037.956.005 1.56.404.216.88.106 5.673.105 6.992l.003 16.654.02 40.18c.004 3.23.274 21.548-.302 23.002-1.98.083-1.667-1.232-1.681-2.884l.031-60c-.001-4.117-.481-21.52.264-24.348"/><path d="M59.318 66.842c.747.14 1.072.056 1.493.522.286 2.474.131 8.08.131 10.745l.004 20.692.008 35.683c.002 5.937.037 11.907 0 17.845-.005.769-.018 1.307-.506 1.924-.64-.093-.734-.102-1.251-.502-.269-1.311-.17-8.006-.17-9.755l-.002-21.621.007-38.752c.001-2.806-.155-14.876.286-16.782"/><path d="M126.743 148.308c.559-.934 1.585-3.125 2.268-3.658 2.893-2.258 17.792-1.938 21.091-1.548 2.369.53 3.253-.393 4.484 1.108l-.086.047c-1.868 1.007-3.958.731-6.094.791-5.438.151-11.162-.382-16.565.069-2.458.205-2.72 4.391-.099 4.712 2.238.417 4.604.253 6.881.227q6.847-.084 13.696-.079c4.086-.002 7.659-.466 11.438 1.324.536 1.113 1.377 2.357.715 3.515-1.129.189-1.084.507-2.021.167l-.275-.822c.028-.289.066-.596.048-.886-.033-.514-.122-.938-.627-1.177-1.029-.487-3.826-.155-5.032-.144-4.31.037-22.392.626-25.353-.397-1.82-.629-3.107-1.957-4.469-3.249"/><defs><linearGradient id="a" x1="101.868" x2="101.879" y1="183.406" y2="181.431" gradientUnits="userSpaceOnUse"><stop offset="0" stop-opacity=".969"/><stop offset="1"/></linearGradient></defs><path fill="url(#a)" d="M70.04 180.991c.39.248 1.351.84 1.78.876 3.456.289 7.488.185 10.937.186l33.792-.01c2.724-.002 17.584-.585 18.477.866-.279 1.082-1.367 1.117-2.396 1.112-16.621-.078-33.245-.051-49.867-.02-3.331.006-6.754.176-10.05-.263-.506-.07-2.921-1.366-3.493-1.665.166-.272.606-.805.82-1.082"/><path d="M138.118 155.929c.343 0 1.58.032 1.647.3 1.178 4.773-1.042 10.343-5.068 13.189-1.538 1.088-2.213 1.548-3.354 2.514-4.569.215-10.519.049-15.169.052l-29.737-.016-.691-.037c-.758-.473-.522-.206-.901-1.004l.273-.473c1.66-.791 40.449-.409 45.225-.405 3.294-1.856 3.92-2.672 6.485-5.373 1.021-4.635 1.218-3.438 1.29-8.747"/><defs><linearGradient id="b" x1="54.921" x2="55.923" y1="64.056" y2="48.421" gradientUnits="userSpaceOnUse"><stop offset="0" stop-opacity=".933"/><stop offset="1" stop-opacity=".988"/></linearGradient></defs><path fill="url(#b)" d="M45.63 62.95q.737-.684 1.452-1.391c.359-.36 1.141-1.24.937-1.778-2.161-5.457-11.056.883-9.986-7.36.612-4.718 8.077-3.392 11.842-3.398q9.724-.067 19.447.031c1.323.863 3.043-.532 4.266 1.147-2.247 1.227-9.549.808-12.375.803l-21.16-.045c-.054.611-.233 2.11-.159 2.665.406 3.018 4.07 2.308 6.2 2.671.747.127 1.923.688 2.643 1.017.481.995 1.152 2.11 1.046 3.185l-.013.144c-.184 1.843-1.596 2.844-3.177 3.557-.289-.384-.735-.72-1.235-.765-7.22-.65-15.51.535-22.653-.185 1.635-.365 5.812-.227 7.676-.245 5.054-.05 10.199.152 15.25-.053"/><path d="m38.301 164.345 2.456-1.191c.959.194 1.217.069 1.76.684l.013.297c-.981.449-2.574 1.032-3.158 1.842-.11.94.461 2.094 1.023 2.837 1.641.428 5.868.247 7.786.229l16.894-.054c2.992-.001 6.576-.252 9.503.141 6.414.862 6.45 1.004 6.327 6.59-1.124.421-1.973.743-3.058 1.272-.607-.207-.917-.69-1.39-1.189.82-.398 1.465-.647 2.31-.965 2.432-3.98-3.675-3.88-5.663-3.917-10.5-.196-21.3.69-31.706-.32-1.389-.135-3.625-2.369-4.675-3.361.769-1.168 1.04-1.604 1.578-2.895"/><defs><linearGradient id="c" x1="122.305" x2="122.191" y1="32.074" y2="25.201" gradientUnits="userSpaceOnUse"><stop offset="0" stop-opacity=".898"/><stop offset="1"/></linearGradient></defs><path fill="url(#c)" d="M141.539 32.79c-3.815-7.118-8.252-5.84-15.324-5.806l-15.608.02c-1.752 0-7.444.352-8.622-.595-.043-.66-.103-.392.332-1.02 1.021-.37 2.685-.384 3.791-.38 9.211.033 18.374-.143 27.588.083 2.755.068 5.94 1.98 7.703 4.11.594.718.94 1.467 1.575 2.16l.098.105c-1.197.578-.827.242-1.533 1.324"/><defs><linearGradient id="d" x1="63.92" x2="63.844" y1="41.816" y2="35.331" gradientUnits="userSpaceOnUse"><stop offset="0" stop-opacity=".89"/><stop offset="1"/></linearGradient></defs><path fill="url(#d)" d="M51.399 43.958c-.423.022-2.09.126-2.367-.057-1.882-1.244-3.244-3.233-2.956-5.573.184-1.488 1.332-2.645 2.653-3.076 3.124.21 6.27.069 9.45.1 7.374.07 14.825-.207 22.191.079.476.018.934.478 1.236.825l-.096.044c-4.196 1.912-24.003.002-29.648.617-1.477.161-3.053-.203-3.782 1.628a2.62 2.62 0 0 0 .05 2.052c1.059 2.29 4.325 1.186 6.291 1.402 4.676.512 14.735-.87 18.859.237-3.287.166-22.244-.404-23.953.534l-.014.346c.643.614 1.22.658 2.086.842"/><defs><linearGradient id="e" x1="166.83" x2="165.416" y1="155.86" y2="165.321" gradientUnits="userSpaceOnUse"><stop offset="0" stop-opacity=".945"/><stop offset="1" stop-opacity=".984"/></linearGradient></defs><path fill="url(#e)" d="m162.176 154.161.275.822c.937.34.892.022 2.021-.167-3.235 3.747-4.114 2.552-8.218 3.906-.554.182-.99.408-1.248.956-.209.446-.236 1.162-.07 1.627 1.404 3.94 19.935.182 23.845 2.145.341.627.299.342.134 1.075-1.514.972-16.817.28-19.674.46-1.609.101-6.245-.996-6.231-3.125a29 29 0 0 1 .153-2.599c3.393-4.108 8.175-.608 9.013-5.1"/><defs><linearGradient id="f" x1="63.703" x2="62.479" y1="50.728" y2="40.967" gradientUnits="userSpaceOnUse"><stop offset="0" stop-opacity=".941"/><stop offset="1"/></linearGradient></defs><path fill="url(#f)" d="M73.28 42.236c.752.316 1.716.756 2.465 1.02.466 1 1.14 2.173 1.038 3.243l-.013.143c-.18 1.834-1.611 2.846-3.181 3.56-1.224-1.68-2.944-.285-4.267-1.148l3.327-.113c1.201-1.125 2.74-2.101 2.207-3.854-1.954-1.638-7.706-1.144-10.227-1.132q-6.615.044-13.23.003c-.866-.184-1.443-.228-2.086-.842l.014-.346c1.71-.938 20.666-.368 23.953-.534"/><defs><linearGradient id="g" x1="142.218" x2="136.179" y1="171.979" y2="161.697" gradientUnits="userSpaceOnUse"><stop offset="0" stop-opacity=".957"/><stop offset="1"/></linearGradient></defs><path fill="url(#g)" d="M143.131 155.89c.811.004 1.297-.062 1.76.628.421 3.297.216 9.064-.965 12.131-1.215 3.157-5.969 6.804-8.863 8.452-.752-.404-1.586-.701-1.675-1.578 1.007-1.248 4.677-1.994 6.24-3.621 4.583-4.773 3.201-10.278 3.503-16.012"/><defs><linearGradient id="h" x1="58.506" x2="58.494" y1="157.844" y2="156.412" gradientUnits="userSpaceOnUse"><stop offset="0" stop-opacity=".937"/><stop offset="1"/></linearGradient></defs><path fill="url(#h)" d="M69.083 158.921c-.06-.164-.25-.471-.344-.636-2.023-.945-17.6.217-20.746-.4-.665-.13-.812-.447-1.075-.956.308-.641.98-.87 1.676-.84 5.873.253 16.204-1.2 21.388 1.363-.615.568-.659.663-.899 1.469"/><defs><linearGradient id="i" x1="56.529" x2="57.001" y1="159.122" y2="164.47" gradientUnits="userSpaceOnUse"><stop offset="0" stop-opacity=".933"/><stop offset="1" stop-opacity=".965"/></linearGradient></defs><path fill="url(#i)" d="M69.982 157.452c1.05 1.024 1.93 1.612 1.877 3.161-.152 4.585-7.544 3.365-10.488 3.48-6.194.243-12.73-.407-18.841.042l-.014-.297c-.542-.615-.8-.49-1.76-.684 1.453-.245 6.933-.149 8.67-.145q9.087.075 18.176-.039c.718-.63 1.525-1.258 2.024-2.062.109-1.055-.023-.917-.543-1.987.24-.806.284-.901.899-1.469"/><path d="M152.778 138.184c-3.083-.216-22.424.157-23.595-.503l.146-.371c2.235-.5 22.166-.638 25.545.237.597.154 1.651 2.411 2.059 3.271-.573 1.399-.837 2.923-2.347 3.392-1.231-1.501-2.115-.578-4.484-1.108 2.168-.043 7.303-.654 3.877-3.852a42 42 0 0 0-1.201-1.066"/><defs><linearGradient id="j" x1="34.243" x2="34.257" y1="64.389" y2="63.34" gradientUnits="userSpaceOnUse"><stop offset="0" stop-opacity=".957"/><stop offset="1"/></linearGradient></defs><path fill="url(#j)" d="M46.593 64.198c-3.042 1.781-16.86.29-20.997.839-1.2.159-3.188.096-3.81-1.134.37-.547.183-.361.92-.655 7.142.72 15.433-.466 22.652.185.5.045.947.381 1.235.765"/><defs><linearGradient id="k" x1="99.255" x2="73.497" y1="23.702" y2="23.754" gradientUnits="userSpaceOnUse"><stop offset="0" stop-opacity=".933"/><stop offset="1" stop-opacity=".965"/></linearGradient></defs><path fill="url(#k)" d="M73.288 26.773c-2.474-7.73 9.47-5.639 13.672-5.749 2.28-.06 11.59-.278 13.027.487l-.106.297c-2.41.653-19.163.224-22.678.261a11.1 11.1 0 0 0-2.507 3.11c-.44.784-.6 1.24-1.408 1.594"/><path d="M80.334 28.16c4.682.643 6.644 4.436 2.567 7.276q-.633.435-1.295.82c-.302-.347-.76-.807-1.236-.825-7.366-.286-14.817-.009-22.19-.08-3.18-.03-6.327.11-9.451-.1 1.276-.364 5.159-.26 6.733-.258l15.169.04c3.534.018 8.935.53 11.976-1.181.338-.43.384-.628.43-1.154.21-2.418-1.456-2.66-3.364-2.797-.016-.34.003-.253.192-.598l1.191-.18-.1-.424-.184.349.213-.025c-.271-.681-.091-.465-.651-.863"/><path d="M76.457 175.803c.473.499.783.982 1.39 1.189-2.156.01-9.94-.331-7.807 3.999-.214.277-.654.81-.82 1.082-.798-.178-.683-.028-1.16-.545-.6-6.833 4.168-4.969 8.2-5.688z"/><defs><linearGradient id="l" x1="78.399" x2="78.599" y1="29.278" y2="28.233" gradientUnits="userSpaceOnUse"><stop offset="0" stop-opacity=".949"/><stop offset="1"/></linearGradient></defs><path fill="url(#l)" d="M80.334 28.16c.56.398.38.182.65.863l-.212.025.184-.35.1.424-1.19.181c-.19.345-.209.259-.193.598-1.71.136-2.494.284-3.949-.714 1.46-1.555 2.286-.46 4.61-1.027"/><path d="M73.288 26.773c.808-.354.968-.81 1.408-1.594.881 4.097 3.131 2.227 5.638 2.982-2.324.566-3.15-.529-4.61 1.026-.722-.626-1.736-1.706-2.436-2.415"/></svg>